<?xml version="1.0" standalone="no"?><!DOCTYPE svg PUBLIC "-//W3C//DTD SVG 1.1//EN" "http://www.w3.org/Graphics/SVG/1.1/DTD/svg11.dtd"><svg t="1723198286895" class="icon" viewBox="0 0 1024 1024" version="1.1" xmlns="http://www.w3.org/2000/svg" p-id="9121" xmlns:xlink="http://www.w3.org/1999/xlink" width="200" height="200"><path d="M512 0C229.376 0 0 229.376 0 512s229.376 512 512 512c282.624-0.512 511.488-229.376 512-512C1024 229.376 794.624 0 512 0z m264.192 676.864l-60.928 108.544c-8.192 14.848-25.6 24.064-42.496 24.064H424.448c-34.816-1.024-67.072-19.456-85.504-49.664l-113.152-198.144c-18.432-30.208-18.432-69.12 0-99.328l113.152-198.144c17.408-31.232 49.664-49.664 85.504-49.664h247.808c17.408-1.024 33.28 9.216 40.448 24.064l63.488 108.544c12.8 22.016 5.632 50.688-16.384 63.488-22.016 13.824-50.688 8.192-65.536-13.824 0-1.024-1.024-2.56-2.56-2.56L660.48 337.92c-8.192-14.848-23.04-24.064-40.448-24.064H478.72c-35.84 0-68.096 18.432-85.504 49.664l-56.32 99.328c-18.432 30.208-18.432 69.12 0 99.328l56.32 99.328c17.408 31.232 49.664 49.664 85.504 49.664h141.824c17.408 1.024 33.28-9.216 40.448-24.064l31.232-56.32c13.824-23.04 42.496-31.232 65.536-18.432 1.024 0 2.56 1.024 2.56 2.56 18.944 12.288 26.112 39.936 15.872 61.952z m14.848-162.304v7.168c-2.56 14.848-16.384 26.624-31.232 24.064h-136.192c-12.8 37.888-48.64 64.512-88.576 65.536-53.248-1.024-95.744-46.08-94.72-99.328-1.024-53.248 41.472-97.792 94.72-99.328 42.496 1.024 78.336 30.208 90.112 70.144h134.656c20.992 0.512 32.256 10.752 31.232 31.744z" fill="#d81e06" p-id="9122"></path></svg>